<svg xmlns="http://www.w3.org/2000/svg" xmlns:xlink="http://www.w3.org/1999/xlink" width="500" zoomAndPan="magnify" viewBox="0 0 375 374.999991" height="500" preserveAspectRatio="xMidYMid meet" version="1.0"><defs><g/><clipPath id="89a5f176e8"><path d="M 28.011719 28.011719 L 346.988281 28.011719 L 346.988281 346.988281 L 28.011719 346.988281 Z M 28.011719 28.011719 " clip-rule="nonzero"/></clipPath><clipPath id="fea254b5f6"><path d="M 187.5 28.011719 C 99.417969 28.011719 28.011719 99.417969 28.011719 187.5 C 28.011719 275.582031 99.417969 346.988281 187.5 346.988281 C 275.582031 346.988281 346.988281 275.582031 346.988281 187.5 C 346.988281 99.417969 275.582031 28.011719 187.5 28.011719 " clip-rule="nonzero"/></clipPath><clipPath id="a42dce0cc8"><path d="M 28.011719 28.011719 L 346.761719 28.011719 L 346.761719 346.761719 L 28.011719 346.761719 Z M 28.011719 28.011719 " clip-rule="nonzero"/></clipPath><clipPath id="142d6c94f1"><path d="M 187.386719 28.011719 C 99.367188 28.011719 28.011719 99.367188 28.011719 187.386719 C 28.011719 275.40625 99.367188 346.761719 187.386719 346.761719 C 275.40625 346.761719 346.761719 275.40625 346.761719 187.386719 C 346.761719 99.367188 275.40625 28.011719 187.386719 28.011719 " clip-rule="nonzero"/></clipPath><clipPath id="6b85cf6b1d"><path d="M 44.359375 44.359375 L 330.640625 44.359375 L 330.640625 330.640625 L 44.359375 330.640625 Z M 44.359375 44.359375 " clip-rule="nonzero"/></clipPath><clipPath id="5b2b94372c"><path d="M 187.5 44.359375 C 108.445312 44.359375 44.359375 108.445312 44.359375 187.5 C 44.359375 266.554688 108.445312 330.640625 187.5 330.640625 C 266.554688 330.640625 330.640625 266.554688 330.640625 187.5 C 330.640625 108.445312 266.554688 44.359375 187.5 44.359375 " clip-rule="nonzero"/></clipPath><clipPath id="07ac8b3c3b"><path d="M 44.359375 44.359375 L 330.859375 44.359375 L 330.859375 330.859375 L 44.359375 330.859375 Z M 44.359375 44.359375 " clip-rule="nonzero"/></clipPath><clipPath id="bb721945a5"><path d="M 187.609375 44.359375 C 108.496094 44.359375 44.359375 108.496094 44.359375 187.609375 C 44.359375 266.722656 108.496094 330.859375 187.609375 330.859375 C 266.722656 330.859375 330.859375 266.722656 330.859375 187.609375 C 330.859375 108.496094 266.722656 44.359375 187.609375 44.359375 " clip-rule="nonzero"/></clipPath><clipPath id="519b6c6156"><path d="M 207 106 L 249.6875 106 L 249.6875 167 L 207 167 Z M 207 106 " clip-rule="nonzero"/></clipPath><clipPath id="f395ca4c4e"><path d="M 181.152344 97.949219 L 241 97.949219 L 241 123 L 181.152344 123 Z M 181.152344 97.949219 " clip-rule="nonzero"/></clipPath><clipPath id="f0c10b9a17"><path d="M 135 145 L 173 145 L 173 234.949219 L 135 234.949219 Z M 135 145 " clip-rule="nonzero"/></clipPath><clipPath id="146cd17596"><path d="M 133.003906 97 L 175 97 L 175 130 L 133.003906 130 Z M 133.003906 97 " clip-rule="nonzero"/></clipPath><clipPath id="e4f23a06d2"><path d="M 36.785156 188.457031 L 124 188.457031 L 124 236 L 36.785156 236 Z M 36.785156 188.457031 " clip-rule="nonzero"/></clipPath><clipPath id="e3babbc3e1"><path d="M 99.957031 188.457031 L 39.785156 188.457031 C 38.988281 188.457031 38.226562 188.769531 37.664062 189.332031 C 37.101562 189.894531 36.785156 190.660156 36.785156 191.457031 L 36.785156 232.894531 C 36.785156 233.691406 37.101562 234.453125 37.664062 235.015625 C 38.226562 235.578125 38.988281 235.894531 39.785156 235.894531 L 99.957031 235.894531 C 101.867188 235.894531 103.6875 235.089844 104.972656 233.675781 L 122.484375 214.394531 C 123.628906 213.136719 123.628906 211.214844 122.484375 209.953125 L 104.972656 190.675781 C 103.6875 189.261719 101.867188 188.457031 99.957031 188.457031 " clip-rule="nonzero"/></clipPath><clipPath id="d52058bfec"><path d="M 251 188 L 338.210938 188 L 338.210938 235.894531 L 251 235.894531 Z M 251 188 " clip-rule="nonzero"/></clipPath><clipPath id="506ee26510"><path d="M 275.039062 235.894531 L 335.210938 235.894531 C 336.007812 235.894531 336.773438 235.578125 337.335938 235.015625 C 337.898438 234.453125 338.210938 233.6875 338.210938 232.894531 L 338.210938 191.453125 C 338.210938 190.65625 337.898438 189.894531 337.335938 189.332031 C 336.773438 188.769531 336.007812 188.453125 335.210938 188.453125 L 275.039062 188.453125 C 273.128906 188.453125 271.308594 189.257812 270.023438 190.671875 L 252.511719 209.953125 C 251.367188 211.210938 251.367188 213.132812 252.511719 214.394531 L 270.023438 233.671875 C 271.308594 235.085938 273.128906 235.894531 275.039062 235.894531 " clip-rule="nonzero"/></clipPath></defs><g clip-path="url(#89a5f176e8)"><g clip-path="url(#fea254b5f6)"><path fill="#414b3b" d="M 28.011719 28.011719 L 346.988281 28.011719 L 346.988281 346.988281 L 28.011719 346.988281 Z M 28.011719 28.011719 " fill-opacity="1" fill-rule="nonzero"/></g></g><g clip-path="url(#a42dce0cc8)"><g clip-path="url(#142d6c94f1)"><path stroke-linecap="butt" transform="matrix(0.749476, 0, 0, 0.749476, 28.012049, 28.012044)" fill="none" stroke-linejoin="miter" d="M 212.64802 -0.000434077 C 95.206653 -0.000434077 -0.000440081 95.206659 -0.000440081 212.648026 C -0.000440081 330.089392 95.206653 425.296485 212.64802 425.296485 C 330.089386 425.296485 425.296479 330.089392 425.296479 212.648026 C 425.296479 95.206659 330.089386 -0.000434077 212.64802 -0.000434077 " stroke="#053149" stroke-width="28" stroke-opacity="1" stroke-miterlimit="4"/></g></g><g clip-path="url(#6b85cf6b1d)"><g clip-path="url(#5b2b94372c)"><path fill="#414b3b" d="M 44.359375 44.359375 L 330.640625 44.359375 L 330.640625 330.640625 L 44.359375 330.640625 Z M 44.359375 44.359375 " fill-opacity="1" fill-rule="nonzero"/></g></g><g clip-path="url(#07ac8b3c3b)"><g clip-path="url(#bb721945a5)"><path fill="#053149" d="M 187.628906 46.609375 L 185.355469 46.628906 L 185.320312 42.125 L 187.59375 42.109375 Z M 183.160156 46.679688 L 180.902344 46.769531 L 180.726562 42.269531 L 182.984375 42.179688 Z M 178.726562 46.886719 L 176.488281 47.042969 L 176.171875 42.550781 L 178.410156 42.394531 Z M 174.328125 47.226562 L 172.089844 47.457031 L 171.636719 42.976562 L 173.875 42.746094 Z M 169.910156 47.710938 L 167.671875 48.011719 L 167.074219 43.546875 L 169.3125 43.246094 Z M 165.511719 48.332031 L 163.292969 48.699219 L 162.558594 44.257812 L 164.777344 43.890625 Z M 161.15625 49.089844 L 158.960938 49.523438 L 158.085938 45.105469 L 160.28125 44.671875 Z M 156.816406 49.984375 L 154.613281 50.492188 L 153.597656 46.105469 L 155.800781 45.59375 Z M 152.496094 51.019531 L 150.320312 51.59375 L 149.167969 47.242188 L 151.339844 46.664062 Z M 148.226562 52.183594 L 146.078125 52.828125 L 144.789062 48.511719 L 146.9375 47.871094 Z M 143.996094 53.484375 L 141.851562 54.203125 L 140.425781 49.929688 L 142.566406 49.214844 Z M 139.792969 54.925781 L 137.679688 55.707031 L 136.117188 51.480469 L 138.230469 50.703125 Z M 135.648438 56.492188 L 133.570312 57.335938 L 131.875 53.164062 L 133.957031 52.320312 Z M 131.5625 58.191406 L 129.496094 59.105469 L 127.671875 54.988281 L 129.734375 54.074219 Z M 127.515625 60.023438 L 125.484375 61 L 123.53125 56.941406 L 125.558594 55.964844 Z M 123.539062 61.976562 L 121.542969 63.015625 L 119.464844 59.019531 L 121.457031 57.980469 Z M 119.628906 64.050781 L 117.660156 65.15625 L 115.453125 61.230469 L 117.421875 60.125 Z M 115.773438 66.257812 L 113.847656 67.421875 L 111.515625 63.566406 L 113.445312 62.402344 Z M 111.996094 68.578125 L 110.109375 69.800781 L 107.660156 66.023438 L 109.550781 64.796875 Z M 108.285156 71.023438 C 107.671875 71.441406 107.066406 71.863281 106.460938 72.289062 L 103.867188 68.609375 C 104.488281 68.167969 105.117188 67.734375 105.746094 67.304688 Z M 104.65625 73.582031 C 104.058594 74.015625 103.464844 74.457031 102.875 74.902344 L 100.167969 71.304688 C 100.777344 70.84375 101.390625 70.390625 102.003906 69.941406 Z M 101.117188 76.25 C 100.53125 76.703125 99.953125 77.160156 99.378906 77.625 L 96.558594 74.113281 C 97.152344 73.632812 97.75 73.160156 98.351562 72.695312 Z M 97.660156 79.023438 C 97.089844 79.496094 96.527344 79.972656 95.964844 80.453125 L 93.035156 77.03125 C 93.617188 76.535156 94.199219 76.042969 94.785156 75.558594 Z M 94.292969 81.910156 C 93.738281 82.398438 93.1875 82.890625 92.640625 83.390625 L 89.605469 80.0625 C 90.171875 79.546875 90.738281 79.039062 91.308594 78.535156 Z M 91.015625 84.894531 C 90.476562 85.402344 89.941406 85.914062 89.410156 86.429688 L 86.273438 83.195312 C 86.820312 82.664062 87.375 82.140625 87.929688 81.617188 Z M 87.832031 87.984375 C 87.3125 88.507812 86.792969 89.035156 86.277344 89.566406 L 83.042969 86.433594 C 83.574219 85.886719 84.109375 85.34375 84.644531 84.800781 Z M 84.75 91.171875 C 84.246094 91.710938 83.742188 92.253906 83.246094 92.800781 L 79.914062 89.769531 C 80.425781 89.207031 80.945312 88.644531 81.464844 88.089844 Z M 81.765625 94.453125 C 81.277344 95.007812 80.792969 95.566406 80.3125 96.128906 L 76.890625 93.203125 C 77.382812 92.625 77.882812 92.046875 78.386719 91.476562 Z M 78.886719 97.824219 C 78.417969 98.394531 77.949219 98.96875 77.488281 99.542969 L 73.972656 96.730469 C 74.449219 96.132812 74.929688 95.542969 75.417969 94.957031 Z M 76.117188 101.285156 C 75.664062 101.867188 75.21875 102.457031 74.773438 103.046875 L 71.171875 100.34375 C 71.628906 99.734375 72.089844 99.128906 72.558594 98.523438 Z M 73.457031 104.832031 C 73.019531 105.429688 72.589844 106.03125 72.167969 106.636719 L 68.480469 104.046875 C 68.921875 103.421875 69.363281 102.800781 69.8125 102.183594 Z M 70.914062 108.445312 L 69.664062 110.316406 L 65.917969 107.816406 L 67.167969 105.945312 Z M 68.484375 112.148438 L 67.292969 114.058594 L 63.46875 111.675781 L 64.660156 109.765625 Z M 66.164062 115.925781 L 65.035156 117.878906 L 61.140625 115.617188 L 62.269531 113.664062 Z M 63.964844 119.785156 L 62.898438 121.765625 L 58.933594 119.625 L 60.003906 117.644531 Z M 61.894531 123.695312 L 60.890625 125.710938 L 56.859375 123.699219 L 57.867188 121.683594 Z M 59.945312 127.675781 L 59.003906 129.726562 L 54.910156 127.839844 L 55.855469 125.792969 Z M 58.117188 131.726562 L 57.242188 133.800781 L 53.09375 132.046875 L 53.972656 129.972656 Z M 56.429688 135.816406 L 55.617188 137.914062 L 51.417969 136.292969 L 52.226562 134.195312 Z M 54.867188 139.960938 L 54.121094 142.089844 L 49.871094 140.601562 L 50.613281 138.472656 Z M 53.429688 144.164062 L 52.753906 146.316406 L 48.457031 144.964844 L 49.136719 142.8125 Z M 52.136719 148.398438 L 51.527344 150.558594 L 47.191406 149.34375 L 47.796875 147.183594 Z M 50.972656 152.667969 L 50.433594 154.859375 L 46.0625 153.78125 L 46.601562 151.589844 Z M 49.945312 156.992188 L 49.472656 159.207031 L 45.066406 158.269531 L 45.539062 156.054688 Z M 49.054688 161.332031 L 48.65625 163.539062 L 44.226562 162.742188 L 44.621094 160.535156 Z M 48.304688 165.6875 L 47.976562 167.917969 L 43.519531 167.257812 L 43.851562 165.027344 Z M 47.6875 170.089844 L 47.429688 172.339844 L 42.953125 171.820312 L 43.214844 169.570312 Z M 47.210938 174.503906 L 47.023438 176.734375 L 42.535156 176.355469 L 42.722656 174.128906 Z M 46.875 178.902344 L 46.757812 181.152344 L 42.257812 180.914062 L 42.378906 178.664062 Z M 46.675781 183.339844 L 46.625 185.605469 L 42.121094 185.507812 L 42.171875 183.238281 Z M 46.613281 187.808594 L 46.632812 190.082031 L 42.128906 190.121094 L 42.109375 187.851562 Z M 46.6875 192.273438 L 46.777344 194.53125 L 42.277344 194.710938 L 42.1875 192.457031 Z M 46.898438 196.707031 L 47.058594 198.945312 L 42.566406 199.265625 L 42.40625 197.027344 Z M 47.25 201.101562 L 47.480469 203.34375 L 43 203.804688 L 42.769531 201.5625 Z M 47.738281 205.523438 L 48.039062 207.761719 L 43.578125 208.363281 L 43.273438 206.125 Z M 48.367188 209.917969 L 48.738281 212.136719 L 44.292969 212.878906 L 43.925781 210.660156 Z M 49.128906 214.269531 L 49.566406 216.46875 L 45.152344 217.351562 L 44.710938 215.152344 Z M 50.03125 218.613281 L 50.542969 220.8125 L 46.15625 221.835938 L 45.644531 219.632812 Z M 51.070312 222.929688 L 51.652344 225.105469 L 47.300781 226.265625 L 46.71875 224.089844 Z M 52.242188 227.195312 L 52.890625 229.34375 L 48.578125 230.640625 L 47.929688 228.492188 Z M 53.550781 231.429688 L 54.269531 233.570312 L 50 235.003906 L 49.28125 232.863281 Z M 55 235.628906 L 55.78125 237.738281 L 51.558594 239.308594 L 50.777344 237.195312 Z M 56.570312 239.769531 L 57.417969 241.847656 L 53.25 243.546875 L 52.402344 241.46875 Z M 58.277344 243.855469 L 59.195312 245.917969 L 55.078125 247.75 L 54.160156 245.6875 Z M 60.113281 247.898438 L 61.09375 249.925781 L 57.039062 251.886719 L 56.058594 249.859375 Z M 62.074219 251.871094 L 63.113281 253.863281 L 59.125 255.949219 L 58.082031 253.957031 Z M 64.15625 255.777344 L 65.265625 257.746094 L 61.339844 259.957031 L 60.234375 257.992188 Z M 66.367188 259.628906 L 67.535156 261.554688 L 63.683594 263.890625 L 62.515625 261.964844 Z M 68.691406 263.402344 L 69.917969 265.289062 L 66.144531 267.742188 L 64.917969 265.855469 Z M 71.144531 267.113281 C 71.5625 267.722656 71.984375 268.328125 72.414062 268.933594 L 68.734375 271.535156 C 68.296875 270.910156 67.859375 270.285156 67.429688 269.652344 Z M 73.707031 270.734375 C 74.144531 271.332031 74.585938 271.925781 75.03125 272.515625 L 71.4375 275.230469 C 70.976562 274.621094 70.523438 274.007812 70.074219 273.390625 Z M 76.378906 274.273438 C 76.835938 274.855469 77.292969 275.433594 77.757812 276.007812 L 74.25 278.832031 C 73.773438 278.238281 73.296875 277.644531 72.828125 277.042969 Z M 79.160156 277.722656 C 79.632812 278.292969 80.109375 278.855469 80.59375 279.417969 L 77.175781 282.351562 C 76.679688 281.773438 76.1875 281.191406 75.699219 280.601562 Z M 82.050781 281.089844 C 82.539062 281.640625 83.035156 282.191406 83.535156 282.734375 L 80.210938 285.777344 C 79.695312 285.210938 79.1875 284.644531 78.679688 284.074219 Z M 85.042969 284.359375 C 85.550781 284.898438 86.0625 285.433594 86.578125 285.960938 L 83.351562 289.101562 C 82.820312 288.554688 82.292969 288.007812 81.769531 287.453125 Z M 88.136719 287.535156 C 88.660156 288.058594 89.1875 288.574219 89.71875 289.089844 L 86.59375 292.328125 C 86.042969 291.800781 85.5 291.265625 84.957031 290.730469 Z M 91.328125 290.617188 C 91.867188 291.121094 92.410156 291.621094 92.957031 292.117188 L 89.933594 295.453125 C 89.367188 294.941406 88.808594 294.425781 88.25 293.90625 Z M 94.613281 293.59375 C 95.167969 294.082031 95.726562 294.5625 96.289062 295.042969 L 93.371094 298.472656 C 92.792969 297.980469 92.214844 297.480469 91.640625 296.976562 Z M 97.992188 296.46875 C 98.5625 296.9375 99.136719 297.402344 99.710938 297.863281 L 96.902344 301.382812 C 96.308594 300.90625 95.714844 300.429688 95.125 299.941406 Z M 101.453125 299.230469 C 102.039062 299.683594 102.625 300.132812 103.21875 300.574219 L 100.519531 304.179688 C 99.910156 303.722656 99.304688 303.261719 98.699219 302.796875 Z M 105.003906 301.890625 C 105.601562 302.324219 106.207031 302.75 106.8125 303.175781 L 104.226562 306.863281 C 103.601562 306.425781 102.980469 305.984375 102.363281 305.535156 Z M 108.625 304.425781 L 110.496094 305.671875 L 108 309.421875 L 106.128906 308.171875 Z M 112.328125 306.851562 L 114.242188 308.039062 L 111.863281 311.863281 L 109.953125 310.675781 Z M 116.113281 309.164062 L 118.0625 310.292969 L 115.808594 314.191406 L 113.855469 313.058594 Z M 119.972656 311.355469 L 121.953125 312.421875 L 119.820312 316.386719 L 117.839844 315.324219 Z M 123.886719 313.421875 L 125.902344 314.421875 L 123.894531 318.457031 L 121.882812 317.453125 Z M 127.871094 315.363281 L 129.921875 316.304688 L 128.042969 320.398438 L 125.992188 319.457031 Z M 131.921875 317.183594 L 133.996094 318.058594 L 132.25 322.207031 L 130.175781 321.335938 Z M 136.011719 318.871094 L 138.113281 319.675781 L 136.496094 323.878906 L 134.398438 323.074219 Z M 140.160156 320.425781 L 142.292969 321.167969 L 140.808594 325.421875 L 138.679688 324.679688 Z M 144.367188 321.855469 L 146.519531 322.527344 L 145.175781 326.824219 L 143.023438 326.152344 Z M 148.601562 323.144531 L 150.765625 323.746094 L 149.558594 328.085938 L 147.394531 327.480469 Z M 152.875 324.296875 L 155.066406 324.835938 L 153.996094 329.207031 L 151.804688 328.671875 Z M 157.199219 325.320312 L 159.414062 325.789062 L 158.484375 330.195312 L 156.269531 329.726562 Z M 161.542969 326.203125 L 163.75 326.597656 L 162.957031 331.03125 L 160.75 330.636719 Z M 165.898438 326.945312 L 168.128906 327.273438 L 167.476562 331.730469 L 165.246094 331.402344 Z M 170.300781 327.554688 L 172.554688 327.8125 L 172.042969 332.289062 L 169.789062 332.03125 Z M 174.714844 328.027344 L 176.945312 328.210938 L 176.574219 332.699219 L 174.34375 332.515625 Z M 179.117188 328.355469 L 181.367188 328.472656 L 181.132812 332.96875 L 178.886719 332.855469 Z M 183.554688 328.550781 L 185.820312 328.597656 L 185.726562 333.097656 L 183.460938 333.054688 Z M 188.023438 328.605469 L 190.296875 328.582031 L 190.34375 333.085938 L 188.074219 333.109375 Z M 192.488281 328.523438 L 194.746094 328.429688 L 194.933594 332.929688 L 192.679688 333.023438 Z M 196.917969 328.304688 L 199.15625 328.140625 L 199.484375 332.632812 L 197.25 332.796875 Z M 201.3125 327.949219 L 203.558594 327.714844 L 204.027344 332.195312 L 201.78125 332.429688 Z M 205.734375 327.453125 L 207.972656 327.148438 L 208.582031 331.609375 L 206.34375 331.914062 Z M 210.128906 326.820312 L 212.34375 326.445312 L 213.09375 330.886719 L 210.878906 331.261719 Z M 214.480469 326.050781 L 216.679688 325.609375 L 217.570312 330.023438 L 215.367188 330.464844 Z M 218.824219 325.140625 L 221.023438 324.625 L 222.050781 329.011719 L 219.851562 329.527344 Z M 223.136719 324.09375 L 225.3125 323.511719 L 226.476562 327.859375 L 224.304688 328.445312 Z M 227.402344 322.914062 L 229.546875 322.265625 L 230.851562 326.578125 L 228.703125 327.226562 Z M 231.632812 321.601562 L 233.773438 320.878906 L 235.210938 325.144531 L 233.074219 325.867188 Z M 235.828125 320.148438 L 237.9375 319.359375 L 239.511719 323.582031 L 237.402344 324.367188 Z M 239.964844 318.566406 L 242.042969 317.71875 L 243.75 321.886719 L 241.671875 322.734375 Z M 244.050781 316.859375 L 246.113281 315.9375 L 247.949219 320.046875 L 245.890625 320.96875 Z M 248.089844 315.015625 L 250.117188 314.03125 L 252.082031 318.082031 L 250.058594 319.066406 Z M 252.0625 313.046875 L 254.050781 312.003906 L 256.144531 315.992188 L 254.15625 317.035156 Z M 255.964844 310.960938 L 257.929688 309.847656 L 260.148438 313.769531 L 258.183594 314.878906 Z M 259.8125 308.742188 L 261.738281 307.574219 L 264.078125 311.421875 L 262.152344 312.589844 Z M 263.582031 306.410156 L 265.464844 305.183594 L 267.925781 308.953125 L 266.042969 310.183594 Z M 267.289062 303.953125 C 267.898438 303.535156 268.503906 303.109375 269.109375 302.683594 L 271.714844 306.355469 C 271.09375 306.796875 270.464844 307.234375 269.835938 307.664062 Z M 270.90625 301.382812 C 271.503906 300.945312 272.097656 300.503906 272.683594 300.058594 L 275.40625 303.648438 C 274.796875 304.109375 274.1875 304.566406 273.570312 305.015625 Z M 274.441406 298.707031 C 275.023438 298.25 275.601562 297.792969 276.175781 297.328125 L 279.003906 300.832031 C 278.414062 301.308594 277.816406 301.78125 277.214844 302.253906 Z M 277.886719 295.921875 C 278.453125 295.449219 279.019531 294.96875 279.578125 294.488281 L 282.519531 297.898438 C 281.941406 298.398438 281.359375 298.890625 280.773438 299.378906 Z M 281.25 293.027344 C 281.800781 292.535156 282.347656 292.039062 282.894531 291.539062 L 285.9375 294.859375 C 285.375 295.375 284.808594 295.886719 284.242188 296.390625 Z M 284.515625 290.027344 C 285.050781 289.519531 285.585938 289.007812 286.113281 288.492188 L 289.261719 291.714844 C 288.714844 292.246094 288.164062 292.773438 287.613281 293.300781 Z M 287.6875 286.929688 C 288.207031 286.40625 288.726562 285.878906 289.238281 285.347656 L 292.484375 288.46875 C 291.953125 289.015625 291.421875 289.5625 290.882812 290.105469 Z M 290.761719 283.734375 C 291.265625 283.195312 291.765625 282.652344 292.261719 282.101562 L 295.601562 285.121094 C 295.09375 285.6875 294.578125 286.25 294.054688 286.808594 Z M 293.734375 280.445312 C 294.222656 279.890625 294.703125 279.328125 295.183594 278.765625 L 298.617188 281.679688 C 298.125 282.261719 297.625 282.835938 297.121094 283.414062 Z M 296.605469 277.0625 C 297.070312 276.492188 297.535156 275.917969 297.996094 275.339844 L 301.519531 278.144531 C 301.046875 278.742188 300.566406 279.332031 300.082031 279.921875 Z M 299.363281 273.597656 C 299.816406 273.011719 300.261719 272.421875 300.703125 271.828125 L 304.3125 274.523438 C 303.855469 275.132812 303.394531 275.742188 302.929688 276.34375 Z M 302.015625 270.042969 C 302.449219 269.441406 302.875 268.839844 303.296875 268.234375 L 306.992188 270.8125 C 306.554688 271.4375 306.113281 272.058594 305.664062 272.675781 Z M 304.546875 266.417969 L 305.789062 264.542969 L 309.539062 267.035156 L 308.296875 268.90625 Z M 306.964844 262.710938 L 308.152344 260.796875 L 311.980469 263.167969 L 310.792969 265.082031 Z M 309.269531 258.921875 L 310.398438 256.96875 L 314.296875 259.21875 L 313.171875 261.171875 Z M 311.460938 255.058594 L 312.519531 253.078125 L 316.492188 255.203125 L 315.429688 257.183594 Z M 313.519531 251.140625 L 314.515625 249.125 L 318.550781 251.125 L 317.554688 253.140625 Z M 315.457031 247.15625 L 316.390625 245.101562 L 320.488281 246.972656 L 319.550781 249.027344 Z M 317.269531 243.097656 L 318.140625 241.027344 L 322.292969 242.765625 L 321.421875 244.839844 Z M 318.949219 239.007812 L 319.75 236.90625 L 323.957031 238.515625 L 323.152344 240.617188 Z M 320.496094 234.855469 L 321.238281 232.722656 L 325.492188 234.199219 L 324.753906 236.332031 Z M 321.921875 230.644531 L 322.589844 228.496094 L 326.890625 229.835938 L 326.21875 231.984375 Z M 323.203125 226.410156 L 323.800781 224.246094 L 328.140625 225.449219 L 327.542969 227.613281 Z M 324.351562 222.136719 L 324.882812 219.945312 L 329.257812 221.007812 L 328.726562 223.199219 Z M 325.367188 217.808594 L 325.832031 215.597656 L 330.238281 216.519531 L 329.773438 218.734375 Z M 326.242188 213.46875 L 326.632812 211.257812 L 331.066406 212.042969 L 330.675781 214.253906 Z M 326.980469 209.109375 L 327.300781 206.875 L 331.757812 207.523438 L 331.4375 209.753906 Z M 327.582031 204.703125 L 327.835938 202.449219 L 332.3125 202.953125 L 332.058594 205.207031 Z M 328.046875 200.289062 L 328.226562 198.058594 L 332.714844 198.425781 L 332.535156 200.65625 Z M 328.367188 195.890625 L 328.480469 193.640625 L 332.980469 193.863281 L 332.867188 196.113281 Z M 328.554688 191.449219 L 328.597656 189.183594 L 333.101562 189.269531 L 333.058594 191.535156 Z M 328.605469 186.976562 L 328.578125 184.707031 L 333.082031 184.652344 L 333.109375 186.921875 Z M 328.515625 182.515625 L 328.417969 180.261719 L 332.917969 180.066406 L 333.015625 182.320312 Z M 328.292969 178.085938 L 328.125 175.851562 L 332.617188 175.515625 L 332.78125 177.75 Z M 327.929688 173.695312 L 327.691406 171.449219 L 332.171875 170.972656 L 332.410156 173.222656 Z M 327.425781 169.269531 L 327.117188 167.035156 L 331.578125 166.417969 L 331.886719 168.65625 Z M 326.785156 164.878906 L 326.410156 162.664062 L 330.847656 161.910156 L 331.226562 164.121094 Z M 326.011719 160.53125 L 325.5625 158.328125 L 329.976562 157.433594 L 330.425781 159.636719 Z M 325.09375 156.1875 L 324.574219 153.988281 L 328.957031 152.953125 L 329.476562 155.152344 Z M 324.039062 151.875 L 323.453125 149.703125 L 327.800781 148.527344 L 328.386719 150.699219 Z M 322.855469 147.613281 L 322.203125 145.46875 L 326.511719 144.15625 L 327.164062 146.304688 Z M 321.53125 143.382812 L 320.808594 141.242188 L 325.074219 139.796875 L 325.796875 141.9375 Z M 320.074219 139.1875 L 319.285156 137.082031 L 323.5 135.5 L 324.292969 137.609375 Z M 318.488281 135.054688 L 317.636719 132.980469 L 321.800781 131.265625 L 322.652344 133.34375 Z M 316.769531 130.972656 L 315.847656 128.910156 L 319.957031 127.066406 L 320.878906 129.128906 Z M 314.921875 126.933594 L 313.9375 124.910156 L 317.984375 122.9375 L 318.96875 124.960938 Z M 312.949219 122.96875 L 311.902344 120.980469 L 315.886719 118.878906 L 316.933594 120.867188 Z M 310.855469 119.066406 L 309.742188 117.105469 L 313.65625 114.878906 L 314.769531 116.839844 Z M 308.632812 115.222656 L 307.460938 113.300781 L 311.304688 110.953125 L 312.476562 112.875 Z M 306.296875 111.457031 L 305.0625 109.574219 L 308.832031 107.109375 L 310.0625 108.992188 Z M 303.832031 107.753906 C 303.410156 107.144531 302.988281 106.539062 302.558594 105.9375 L 306.226562 103.324219 C 306.671875 103.949219 307.109375 104.574219 307.539062 105.199219 Z M 301.257812 104.140625 C 300.820312 103.542969 300.378906 102.953125 299.929688 102.363281 L 303.515625 99.636719 C 303.976562 100.246094 304.433594 100.855469 304.886719 101.46875 Z M 298.574219 100.609375 C 298.117188 100.027344 297.660156 99.453125 297.191406 98.878906 L 300.691406 96.042969 C 301.171875 96.632812 301.648438 97.230469 302.117188 97.828125 Z M 295.785156 97.167969 C 295.308594 96.601562 294.832031 96.039062 294.347656 95.476562 L 297.753906 92.535156 C 298.253906 93.109375 298.746094 93.691406 299.238281 94.277344 Z M 292.882812 93.8125 C 292.390625 93.257812 291.894531 92.710938 291.394531 92.167969 L 294.710938 89.117188 C 295.226562 89.679688 295.738281 90.246094 296.246094 90.8125 Z M 289.882812 90.546875 C 289.375 90.011719 288.859375 89.480469 288.34375 88.953125 L 291.558594 85.800781 C 292.09375 86.34375 292.621094 86.894531 293.148438 87.445312 Z M 286.78125 87.378906 C 286.253906 86.859375 285.726562 86.34375 285.191406 85.832031 L 288.308594 82.582031 C 288.859375 83.113281 289.40625 83.644531 289.945312 84.179688 Z M 283.578125 84.3125 C 283.039062 83.808594 282.492188 83.308594 281.945312 82.816406 L 284.957031 79.46875 C 285.523438 79.980469 286.085938 80.496094 286.644531 81.011719 Z M 280.285156 81.34375 C 279.726562 80.859375 279.167969 80.375 278.601562 79.898438 L 281.511719 76.460938 C 282.09375 76.953125 282.671875 77.449219 283.246094 77.949219 Z M 276.898438 78.480469 C 276.328125 78.011719 275.753906 77.550781 275.171875 77.089844 L 277.972656 73.5625 C 278.570312 74.035156 279.164062 74.511719 279.75 74.996094 Z M 273.425781 75.726562 C 272.839844 75.277344 272.25 74.828125 271.65625 74.390625 L 274.34375 70.773438 C 274.957031 71.230469 275.566406 71.691406 276.171875 72.15625 Z M 269.867188 73.078125 C 269.269531 72.648438 268.664062 72.222656 268.058594 71.796875 L 270.628906 68.101562 C 271.257812 68.539062 271.878906 68.980469 272.5 69.425781 Z M 266.242188 70.554688 L 264.363281 69.3125 L 266.851562 65.558594 L 268.726562 66.796875 Z M 262.527344 68.140625 L 260.613281 66.957031 L 262.976562 63.125 L 264.894531 64.308594 Z M 258.738281 65.839844 L 256.78125 64.714844 L 259.027344 60.8125 L 260.980469 61.933594 Z M 254.871094 63.65625 L 252.886719 62.597656 L 255.007812 58.625 L 256.988281 59.683594 Z M 250.949219 61.605469 L 248.933594 60.609375 L 250.925781 56.570312 L 252.945312 57.566406 Z M 246.960938 59.671875 L 244.90625 58.738281 L 246.773438 54.640625 L 248.824219 55.574219 Z M 242.902344 57.863281 L 240.828125 57 L 242.5625 52.84375 L 244.636719 53.707031 Z M 238.808594 56.195312 L 236.707031 55.394531 L 238.308594 51.183594 L 240.410156 51.984375 Z M 234.65625 54.648438 L 232.519531 53.914062 L 233.988281 49.65625 L 236.121094 50.390625 Z M 230.441406 53.234375 L 228.292969 52.566406 L 229.625 48.265625 L 231.773438 48.933594 Z M 226.207031 51.957031 L 224.039062 51.363281 L 225.234375 47.019531 L 227.402344 47.617188 Z M 221.929688 50.816406 L 219.734375 50.285156 L 220.792969 45.910156 L 222.984375 46.4375 Z M 217.597656 49.804688 L 215.386719 49.347656 L 216.304688 44.9375 L 218.515625 45.398438 Z M 213.257812 48.9375 L 211.050781 48.550781 L 211.828125 44.113281 L 214.039062 44.503906 Z M 208.898438 48.207031 L 206.664062 47.886719 L 207.300781 43.429688 L 209.535156 43.75 Z M 204.492188 47.609375 L 202.234375 47.359375 L 202.734375 42.882812 L 204.988281 43.136719 Z M 200.078125 47.15625 L 197.847656 46.976562 L 198.207031 42.488281 L 200.4375 42.664062 Z M 195.675781 46.839844 L 193.425781 46.730469 L 193.644531 42.230469 L 195.894531 42.339844 Z M 191.234375 46.65625 L 188.96875 46.617188 L 189.046875 42.113281 L 191.3125 42.152344 Z M 191.234375 46.65625 " fill-opacity="1" fill-rule="nonzero"/></g></g><g fill="#fff9f3" fill-opacity="1"><g transform="translate(80.835438, 179.836722)"><g><path d="M -12.78125 -6.734375 C -13.84375 -7.378906 -14.597656 -8.253906 -15.046875 -9.359375 C -15.503906 -10.460938 -15.648438 -11.785156 -15.484375 -13.328125 L -13.296875 -13.09375 L -13.375 -12.546875 C -13.570312 -10.804688 -13.1875 -9.378906 -12.21875 -8.265625 C -11.257812 -7.160156 -9.8125 -6.503906 -7.875 -6.296875 L 0.59375 -5.375 L 0.34375 -3.125 L -16.265625 -4.9375 L -16.03125 -7.09375 Z M -12.78125 -6.734375 "/></g></g></g><g fill="#fff9f3" fill-opacity="1"><g transform="translate(81.836885, 168.002786)"><g><path d="M -3.046875 -19.03125 L -6.5 -5.5 C -4.78125 -5.1875 -3.253906 -5.484375 -1.921875 -6.390625 C -0.585938 -7.296875 0.304688 -8.644531 0.765625 -10.4375 C 1.015625 -11.425781 1.066406 -12.390625 0.921875 -13.328125 C 0.785156 -14.265625 0.445312 -15.128906 -0.09375 -15.921875 L 1.625 -16.796875 C 2.300781 -15.859375 2.726562 -14.796875 2.90625 -13.609375 C 3.09375 -12.421875 3.019531 -11.179688 2.6875 -9.890625 C 2.257812 -8.222656 1.523438 -6.835938 0.484375 -5.734375 C -0.546875 -4.628906 -1.773438 -3.875 -3.203125 -3.46875 C -4.640625 -3.070312 -6.148438 -3.078125 -7.734375 -3.484375 C -9.316406 -3.890625 -10.644531 -4.59375 -11.71875 -5.59375 C -12.789062 -6.601562 -13.519531 -7.796875 -13.90625 -9.171875 C -14.300781 -10.546875 -14.3125 -11.984375 -13.9375 -13.484375 C -13.550781 -14.972656 -12.859375 -16.222656 -11.859375 -17.234375 C -10.859375 -18.253906 -9.648438 -18.941406 -8.234375 -19.296875 C -6.816406 -19.660156 -5.3125 -19.640625 -3.71875 -19.234375 Z M -12.046875 -13.015625 C -12.441406 -11.453125 -12.28125 -10.015625 -11.5625 -8.703125 C -10.84375 -7.390625 -9.695312 -6.460938 -8.125 -5.921875 L -5.203125 -17.390625 C -6.835938 -17.660156 -8.285156 -17.394531 -9.546875 -16.59375 C -10.804688 -15.789062 -11.640625 -14.597656 -12.046875 -13.015625 Z M -12.046875 -13.015625 "/></g></g></g><g fill="#fff9f3" fill-opacity="1"><g transform="translate(86.062521, 150.574049)"><g><path d="M -10.4375 -17.671875 C -9.78125 -19.097656 -8.863281 -20.242188 -7.6875 -21.109375 C -6.519531 -21.972656 -5.195312 -22.460938 -3.71875 -22.578125 C -2.238281 -22.703125 -0.753906 -22.421875 0.734375 -21.734375 C 2.265625 -21.035156 3.460938 -20.085938 4.328125 -18.890625 C 5.203125 -17.703125 5.703125 -16.390625 5.828125 -14.953125 C 5.953125 -13.515625 5.679688 -12.070312 5.015625 -10.625 C 4.453125 -9.394531 3.691406 -8.398438 2.734375 -7.640625 C 1.773438 -6.890625 0.660156 -6.414062 -0.609375 -6.21875 L 7.84375 -2.359375 L 6.890625 -0.296875 L -13.890625 -9.796875 L -12.984375 -11.765625 L -10 -10.390625 C -10.71875 -11.460938 -11.113281 -12.625 -11.1875 -13.875 C -11.257812 -15.132812 -11.007812 -16.398438 -10.4375 -17.671875 Z M 3.140625 -11.3125 C 3.628906 -12.375 3.820312 -13.445312 3.71875 -14.53125 C 3.625 -15.625 3.234375 -16.625 2.546875 -17.53125 C 1.867188 -18.445312 0.953125 -19.164062 -0.203125 -19.6875 C -1.359375 -20.21875 -2.492188 -20.4375 -3.609375 -20.34375 C -4.734375 -20.257812 -5.738281 -19.898438 -6.625 -19.265625 C -7.519531 -18.628906 -8.210938 -17.78125 -8.703125 -16.71875 C -9.191406 -15.632812 -9.382812 -14.550781 -9.28125 -13.46875 C -9.175781 -12.382812 -8.785156 -11.394531 -8.109375 -10.5 C -7.441406 -9.601562 -6.53125 -8.890625 -5.375 -8.359375 C -4.21875 -7.835938 -3.070312 -7.613281 -1.9375 -7.6875 C -0.8125 -7.757812 0.191406 -8.109375 1.078125 -8.734375 C 1.960938 -9.367188 2.648438 -10.226562 3.140625 -11.3125 Z M 3.140625 -11.3125 "/></g></g></g><g fill="#fff9f3" fill-opacity="1"><g transform="translate(94.495688, 132.125363)"><g><path d="M -8.734375 -16.953125 C -7.492188 -18.753906 -6.09375 -19.820312 -4.53125 -20.15625 C -2.976562 -20.5 -1.320312 -20.0625 0.4375 -18.84375 L 8.953125 -12.953125 L 7.734375 -11.1875 L 5.59375 -12.671875 C 6.019531 -11.742188 6.148438 -10.738281 5.984375 -9.65625 C 5.816406 -8.570312 5.347656 -7.472656 4.578125 -6.359375 C 3.523438 -4.828125 2.320312 -3.863281 0.96875 -3.46875 C -0.382812 -3.070312 -1.664062 -3.285156 -2.875 -4.109375 C -4.03125 -4.910156 -4.675781 -5.976562 -4.8125 -7.3125 C -4.945312 -8.65625 -4.375 -10.253906 -3.09375 -12.109375 L -0.09375 -16.46875 L -0.921875 -17.046875 C -2.109375 -17.867188 -3.234375 -18.160156 -4.296875 -17.921875 C -5.367188 -17.691406 -6.347656 -16.9375 -7.234375 -15.65625 C -7.835938 -14.789062 -8.269531 -13.859375 -8.53125 -12.859375 C -8.800781 -11.859375 -8.882812 -10.894531 -8.78125 -9.96875 L -10.75 -10.078125 C -10.851562 -11.203125 -10.726562 -12.359375 -10.375 -13.546875 C -10.03125 -14.734375 -9.484375 -15.867188 -8.734375 -16.953125 Z M 3.328125 -7.671875 C 4.035156 -8.703125 4.410156 -9.753906 4.453125 -10.828125 C 4.503906 -11.910156 4.203125 -12.957031 3.546875 -13.96875 L 1.296875 -15.515625 L -1.671875 -11.203125 C -3.304688 -8.847656 -3.304688 -7.101562 -1.671875 -5.96875 C -0.867188 -5.414062 -0.03125 -5.285156 0.84375 -5.578125 C 1.726562 -5.867188 2.554688 -6.566406 3.328125 -7.671875 Z M 3.328125 -7.671875 "/></g></g></g><g fill="#fff9f3" fill-opacity="1"><g transform="translate(104.974989, 117.433305)"><g><path d="M -10.40625 -13.4375 L -8.890625 -15.140625 L 3.59375 -4.046875 L 2.078125 -2.34375 Z M -12.375 -16.71875 C -12.6875 -16.363281 -13.066406 -16.175781 -13.515625 -16.15625 C -13.960938 -16.132812 -14.351562 -16.269531 -14.6875 -16.5625 C -15 -16.84375 -15.171875 -17.203125 -15.203125 -17.640625 C -15.234375 -18.085938 -15.09375 -18.488281 -14.78125 -18.84375 C -14.46875 -19.195312 -14.09375 -19.390625 -13.65625 -19.421875 C -13.21875 -19.460938 -12.84375 -19.34375 -12.53125 -19.0625 C -12.175781 -18.75 -11.984375 -18.367188 -11.953125 -17.921875 C -11.921875 -17.472656 -12.0625 -17.070312 -12.375 -16.71875 Z M -12.375 -16.71875 "/></g></g></g><g fill="#fff9f3" fill-opacity="1"><g transform="translate(110.292547, 111.265856)"><g><path d="M -5.265625 -13.453125 C -5.640625 -14.640625 -5.632812 -15.796875 -5.25 -16.921875 C -4.863281 -18.054688 -4.109375 -19.148438 -2.984375 -20.203125 L -1.5 -18.59375 L -1.921875 -18.25 C -3.203125 -17.0625 -3.835938 -15.734375 -3.828125 -14.265625 C -3.828125 -12.796875 -3.164062 -11.347656 -1.84375 -9.921875 L 3.953125 -3.6875 L 2.296875 -2.140625 L -9.078125 -14.375 L -7.484375 -15.84375 Z M -5.265625 -13.453125 "/></g></g></g><g fill="#fff9f3" fill-opacity="1"><g transform="translate(119.386774, 102.932946)"><g/></g></g><g fill="#fff9f3" fill-opacity="1"><g transform="translate(125.10787, 97.947005)"><g><path d="M 17.09375 -9.453125 L 12.84375 -10.671875 C 12.207031 -7.992188 10.5625 -5.882812 7.90625 -4.34375 C 6.65625 -3.625 5.421875 -3.1875 4.203125 -3.03125 C 2.992188 -2.875 1.898438 -3.007812 0.921875 -3.4375 C -0.0546875 -3.863281 -0.820312 -4.554688 -1.375 -5.515625 C -2.039062 -6.671875 -2.269531 -7.914062 -2.0625 -9.25 C -1.863281 -10.59375 -1.175781 -12.273438 0 -14.296875 C -1.46875 -14.734375 -2.566406 -15.179688 -3.296875 -15.640625 C -4.023438 -16.109375 -4.601562 -16.71875 -5.03125 -17.46875 C -5.75 -18.707031 -5.882812 -19.953125 -5.4375 -21.203125 C -4.988281 -22.460938 -4.023438 -23.519531 -2.546875 -24.375 C -1.171875 -25.164062 0.113281 -25.457031 1.3125 -25.25 C 2.507812 -25.039062 3.453125 -24.335938 4.140625 -23.140625 C 4.691406 -22.179688 4.863281 -21.132812 4.65625 -20 C 4.445312 -18.875 3.828125 -17.398438 2.796875 -15.578125 L 11.21875 -13.171875 C 11.195312 -14.554688 10.910156 -16.039062 10.359375 -17.625 L 12.234375 -18.046875 C 12.890625 -16.128906 13.175781 -14.328125 13.09375 -12.640625 L 17.5 -11.390625 Z M -1.703125 -22.9375 C -2.648438 -22.382812 -3.253906 -21.710938 -3.515625 -20.921875 C -3.785156 -20.128906 -3.691406 -19.335938 -3.234375 -18.546875 C -2.910156 -17.972656 -2.453125 -17.515625 -1.859375 -17.171875 C -1.273438 -16.835938 -0.304688 -16.472656 1.046875 -16.078125 C 1.992188 -17.691406 2.566406 -18.9375 2.765625 -19.8125 C 2.972656 -20.695312 2.878906 -21.476562 2.484375 -22.15625 C 2.066406 -22.894531 1.484375 -23.335938 0.734375 -23.484375 C -0.00390625 -23.628906 -0.816406 -23.445312 -1.703125 -22.9375 Z M 7.09375 -6.046875 C 9.207031 -7.265625 10.515625 -8.972656 11.015625 -11.171875 L 1.75 -13.8125 C 0.726562 -12.070312 0.132812 -10.6875 -0.03125 -9.65625 C -0.207031 -8.625 -0.0507812 -7.675781 0.4375 -6.8125 C 1.039062 -5.769531 1.945312 -5.175781 3.15625 -5.03125 C 4.375 -4.894531 5.6875 -5.234375 7.09375 -6.046875 Z M 7.09375 -6.046875 "/></g></g></g><g fill="#fff9f3" fill-opacity="1"><g transform="translate(143.004242, 88.060871)"><g/></g></g><g fill="#fff9f3" fill-opacity="1"><g transform="translate(149.091198, 84.157264)"><g><path d="M 20 -21.421875 C 22.050781 -21.847656 23.785156 -21.597656 25.203125 -20.671875 C 26.617188 -19.742188 27.570312 -18.128906 28.0625 -15.828125 L 30.0625 -6.34375 L 27.859375 -5.875 L 25.90625 -15.140625 C 25.539062 -16.835938 24.851562 -18.046875 23.84375 -18.765625 C 22.832031 -19.484375 21.582031 -19.6875 20.09375 -19.375 C 18.394531 -19.007812 17.171875 -18.203125 16.421875 -16.953125 C 15.671875 -15.703125 15.488281 -14.15625 15.875 -12.3125 L 17.6875 -3.734375 L 15.46875 -3.265625 L 13.515625 -12.53125 C 13.148438 -14.226562 12.46875 -15.4375 11.46875 -16.15625 C 10.46875 -16.875 9.207031 -17.070312 7.6875 -16.75 C 6.007812 -16.394531 4.789062 -15.585938 4.03125 -14.328125 C 3.28125 -13.078125 3.097656 -11.53125 3.484375 -9.6875 L 5.296875 -1.109375 L 3.078125 -0.640625 L -0.375 -16.984375 L 1.75 -17.4375 L 2.390625 -14.453125 C 2.734375 -15.578125 3.367188 -16.515625 4.296875 -17.265625 C 5.234375 -18.023438 6.375 -18.546875 7.71875 -18.828125 C 9.082031 -19.117188 10.328125 -19.078125 11.453125 -18.703125 C 12.578125 -18.335938 13.507812 -17.644531 14.25 -16.625 C 14.625 -17.820312 15.3125 -18.84375 16.3125 -19.6875 C 17.320312 -20.539062 18.550781 -21.117188 20 -21.421875 Z M 20 -21.421875 "/></g></g></g><g fill="#fff9f3" fill-opacity="1"><g transform="translate(180.40285, 78.210665)"><g><path d="M 9.328125 -16.640625 C 11.515625 -16.597656 13.175781 -16.019531 14.3125 -14.90625 C 15.457031 -13.800781 16.003906 -12.179688 15.953125 -10.046875 L 15.75 0.3125 L 13.59375 0.28125 L 13.640625 -2.328125 C 13.117188 -1.460938 12.359375 -0.796875 11.359375 -0.328125 C 10.367188 0.128906 9.195312 0.34375 7.84375 0.3125 C 5.976562 0.28125 4.503906 -0.191406 3.421875 -1.109375 C 2.335938 -2.023438 1.8125 -3.210938 1.84375 -4.671875 C 1.875 -6.085938 2.410156 -7.21875 3.453125 -8.0625 C 4.492188 -8.914062 6.140625 -9.316406 8.390625 -9.265625 L 13.6875 -9.171875 L 13.71875 -10.1875 C 13.738281 -11.625 13.351562 -12.722656 12.5625 -13.484375 C 11.78125 -14.253906 10.613281 -14.65625 9.0625 -14.6875 C 8 -14.707031 6.976562 -14.550781 6 -14.21875 C 5.019531 -13.882812 4.175781 -13.421875 3.46875 -12.828125 L 2.484375 -14.53125 C 3.347656 -15.238281 4.375 -15.773438 5.5625 -16.140625 C 6.757812 -16.503906 8.015625 -16.671875 9.328125 -16.640625 Z M 8.234375 -1.453125 C 9.492188 -1.429688 10.582031 -1.695312 11.5 -2.25 C 12.425781 -2.8125 13.125 -3.644531 13.59375 -4.75 L 13.65625 -7.484375 L 8.421875 -7.578125 C 5.554688 -7.640625 4.101562 -6.675781 4.0625 -4.6875 C 4.039062 -3.707031 4.394531 -2.929688 5.125 -2.359375 C 5.851562 -1.785156 6.890625 -1.484375 8.234375 -1.453125 Z M 8.234375 -1.453125 "/></g></g></g><g fill="#fff9f3" fill-opacity="1"><g transform="translate(198.437936, 78.843386)"><g><path d="M 5.46875 -16.09375 L 7.71875 -15.765625 L 5.359375 0.765625 L 3.109375 0.4375 Z M 7.109375 -19.546875 C 6.648438 -19.617188 6.28125 -19.832031 6 -20.1875 C 5.726562 -20.539062 5.628906 -20.941406 5.703125 -21.390625 C 5.753906 -21.804688 5.960938 -22.148438 6.328125 -22.421875 C 6.691406 -22.691406 7.101562 -22.789062 7.5625 -22.71875 C 8.03125 -22.65625 8.398438 -22.445312 8.671875 -22.09375 C 8.941406 -21.75 9.046875 -21.367188 8.984375 -20.953125 C 8.910156 -20.484375 8.695312 -20.113281 8.34375 -19.84375 C 7.988281 -19.582031 7.578125 -19.484375 7.109375 -19.546875 Z M 7.109375 -19.546875 "/></g></g></g><g fill="#fff9f3" fill-opacity="1"><g transform="translate(206.203278, 79.461878)"><g><path d="M 15.78125 -13.046875 C 17.789062 -12.472656 19.226562 -11.429688 20.09375 -9.921875 C 20.96875 -8.421875 21.085938 -6.550781 20.453125 -4.3125 L 17.828125 5.015625 L 15.65625 4.40625 L 18.21875 -4.703125 C 18.695312 -6.378906 18.640625 -7.769531 18.046875 -8.875 C 17.453125 -9.976562 16.382812 -10.75 14.84375 -11.1875 C 13.101562 -11.675781 11.582031 -11.546875 10.28125 -10.796875 C 8.988281 -10.054688 8.085938 -8.78125 7.578125 -6.96875 L 5.203125 1.46875 L 3.015625 0.859375 L 7.546875 -15.21875 L 9.640625 -14.640625 L 8.796875 -11.671875 C 9.660156 -12.492188 10.691406 -13.023438 11.890625 -13.265625 C 13.097656 -13.503906 14.394531 -13.429688 15.78125 -13.046875 Z M 15.78125 -13.046875 "/></g></g></g><g fill="#fff9f3" fill-opacity="1"><g transform="translate(225.856597, 85.257676)"><g><path d="M 11.296875 4.015625 C 10.753906 4.191406 10.15625 4.238281 9.5 4.15625 C 8.851562 4.082031 8.222656 3.90625 7.609375 3.625 C 6.171875 2.96875 5.242188 2.082031 4.828125 0.96875 C 4.410156 -0.144531 4.519531 -1.410156 5.15625 -2.828125 L 9.328125 -12.015625 L 6.609375 -13.25 L 7.40625 -14.984375 L 10.125 -13.75 L 11.640625 -17.078125 L 13.6875 -16.140625 L 12.171875 -12.8125 L 16.796875 -10.71875 L 16 -8.984375 L 11.375 -11.078125 L 7.265625 -2 C 6.847656 -1.09375 6.757812 -0.300781 7 0.375 C 7.238281 1.050781 7.78125 1.578125 8.625 1.953125 C 9.050781 2.148438 9.492188 2.269531 9.953125 2.3125 C 10.410156 2.363281 10.84375 2.328125 11.25 2.203125 Z M 11.296875 4.015625 "/></g></g></g><g fill="#fff9f3" fill-opacity="1"><g transform="translate(236.922182, 89.970254)"><g><path d="M 19.03125 3.0625 L 7.265625 -4.453125 C 6.429688 -2.921875 6.234375 -1.378906 6.671875 0.171875 C 7.109375 1.722656 8.109375 2.992188 9.671875 3.984375 C 10.535156 4.546875 11.4375 4.90625 12.375 5.0625 C 13.3125 5.21875 14.238281 5.160156 15.15625 4.890625 L 15.4375 6.796875 C 14.332031 7.148438 13.1875 7.222656 12 7.015625 C 10.820312 6.804688 9.671875 6.34375 8.546875 5.625 C 7.097656 4.707031 6.007812 3.582031 5.28125 2.25 C 4.5625 0.925781 4.234375 -0.472656 4.296875 -1.953125 C 4.367188 -3.441406 4.847656 -4.875 5.734375 -6.25 C 6.609375 -7.625 7.691406 -8.664062 8.984375 -9.375 C 10.273438 -10.082031 11.632812 -10.40625 13.0625 -10.34375 C 14.5 -10.28125 15.863281 -9.835938 17.15625 -9.015625 C 18.457031 -8.179688 19.429688 -7.128906 20.078125 -5.859375 C 20.734375 -4.597656 21.007812 -3.238281 20.90625 -1.78125 C 20.8125 -0.320312 20.320312 1.097656 19.4375 2.484375 Z M 16.125 -7.375 C 14.769531 -8.238281 13.351562 -8.53125 11.875 -8.25 C 10.40625 -7.96875 9.171875 -7.175781 8.171875 -5.875 L 18.15625 0.5 C 18.914062 -0.96875 19.113281 -2.425781 18.75 -3.875 C 18.382812 -5.320312 17.507812 -6.488281 16.125 -7.375 Z M 16.125 -7.375 "/></g></g></g><g fill="#fff9f3" fill-opacity="1"><g transform="translate(252.158409, 99.435105)"><g><path d="M 19.984375 -4.453125 C 21.515625 -3.023438 22.320312 -1.445312 22.40625 0.28125 C 22.5 2.007812 21.753906 3.734375 20.171875 5.453125 L 13.59375 12.5625 L 11.9375 11.046875 L 18.359375 4.09375 C 19.546875 2.8125 20.128906 1.539062 20.109375 0.28125 C 20.085938 -0.96875 19.488281 -2.132812 18.3125 -3.21875 C 16.988281 -4.445312 15.578125 -5.023438 14.078125 -4.953125 C 12.585938 -4.878906 11.203125 -4.148438 9.921875 -2.765625 L 3.96875 3.671875 L 2.3125 2.125 L 13.65625 -10.140625 L 15.25 -8.65625 L 13.15625 -6.390625 C 14.28125 -6.734375 15.429688 -6.738281 16.609375 -6.40625 C 17.796875 -6.070312 18.921875 -5.421875 19.984375 -4.453125 Z M 19.984375 -4.453125 "/></g></g></g><g fill="#fff9f3" fill-opacity="1"><g transform="translate(267.02141, 113.192982)"><g><path d="M 18.84375 -3 C 20.164062 -1.25 20.742188 0.414062 20.578125 2 C 20.410156 3.582031 19.476562 5.019531 17.78125 6.3125 L 9.515625 12.5625 L 8.203125 10.84375 L 10.28125 9.265625 C 9.28125 9.378906 8.289062 9.191406 7.3125 8.703125 C 6.332031 8.210938 5.429688 7.425781 4.609375 6.34375 C 3.484375 4.851562 2.941406 3.398438 2.984375 1.984375 C 3.035156 0.578125 3.644531 -0.566406 4.8125 -1.453125 C 5.9375 -2.304688 7.15625 -2.585938 8.46875 -2.296875 C 9.78125 -2.003906 11.113281 -0.957031 12.46875 0.84375 L 15.671875 5.0625 L 16.484375 4.453125 C 17.628906 3.585938 18.257812 2.609375 18.375 1.515625 C 18.488281 0.421875 18.078125 -0.742188 17.140625 -1.984375 C 16.492188 -2.828125 15.738281 -3.53125 14.875 -4.09375 C 14.007812 -4.664062 13.125 -5.046875 12.21875 -5.234375 L 12.953125 -7.046875 C 14.035156 -6.804688 15.085938 -6.332031 16.109375 -5.625 C 17.140625 -4.914062 18.050781 -4.039062 18.84375 -3 Z M 6.25 5.5625 C 7.007812 6.5625 7.894531 7.25 8.90625 7.625 C 9.914062 8 11 8.035156 12.15625 7.734375 L 14.328125 6.09375 L 11.15625 1.921875 C 9.425781 -0.367188 7.769531 -0.914062 6.1875 0.28125 C 5.40625 0.875 5.015625 1.632812 5.015625 2.5625 C 5.023438 3.488281 5.4375 4.488281 6.25 5.5625 Z M 6.25 5.5625 "/></g></g></g><g fill="#fff9f3" fill-opacity="1"><g transform="translate(277.778846, 127.011677)"><g><path d="M 20.28125 2.71875 C 21.226562 4.59375 21.445312 6.359375 20.9375 8.015625 C 20.425781 9.671875 19.128906 11.03125 17.046875 12.09375 L 8.421875 16.5 L 7.390625 14.484375 L 15.828125 10.1875 C 17.378906 9.394531 18.359375 8.40625 18.765625 7.21875 C 19.179688 6.03125 19.023438 4.722656 18.296875 3.296875 C 17.484375 1.691406 16.359375 0.664062 14.921875 0.21875 C 13.492188 -0.226562 11.941406 -0.0234375 10.265625 0.828125 L 2.453125 4.8125 L 1.421875 2.796875 L 16.296875 -4.796875 L 17.296875 -2.859375 L 14.5625 -1.453125 C 15.738281 -1.378906 16.820312 -0.984375 17.8125 -0.265625 C 18.800781 0.453125 19.625 1.445312 20.28125 2.71875 Z M 20.28125 2.71875 "/></g></g></g><g fill="#fff9f3" fill-opacity="1"><g transform="translate(286.953491, 145.104956)"><g><path d="M 2.8125 9.65625 C 2.320312 8.082031 2.226562 6.566406 2.53125 5.109375 C 2.84375 3.660156 3.507812 2.390625 4.53125 1.296875 C 5.5625 0.210938 6.859375 -0.570312 8.421875 -1.0625 C 9.972656 -1.539062 11.472656 -1.613281 12.921875 -1.28125 C 14.378906 -0.957031 15.640625 -0.28125 16.703125 0.75 C 17.773438 1.78125 18.554688 3.082031 19.046875 4.65625 C 19.472656 6.039062 19.585938 7.351562 19.390625 8.59375 C 19.191406 9.84375 18.671875 10.941406 17.828125 11.890625 L 16.25 10.625 C 16.863281 9.851562 17.242188 9 17.390625 8.0625 C 17.535156 7.132812 17.460938 6.191406 17.171875 5.234375 C 16.816406 4.097656 16.238281 3.144531 15.4375 2.375 C 14.632812 1.613281 13.679688 1.117188 12.578125 0.890625 C 11.472656 0.660156 10.3125 0.734375 9.09375 1.109375 C 7.863281 1.492188 6.851562 2.09375 6.0625 2.90625 C 5.28125 3.71875 4.773438 4.660156 4.546875 5.734375 C 4.316406 6.816406 4.378906 7.925781 4.734375 9.0625 C 5.023438 10.019531 5.484375 10.847656 6.109375 11.546875 C 6.742188 12.242188 7.539062 12.734375 8.5 13.015625 L 7.890625 14.953125 C 6.679688 14.640625 5.632812 14.019531 4.75 13.09375 C 3.875 12.164062 3.226562 11.019531 2.8125 9.65625 Z M 2.8125 9.65625 "/></g></g></g><g fill="#fff9f3" fill-opacity="1"><g transform="translate(292.034552, 161.100726)"><g><path d="M 9.984375 16.484375 L 8.078125 2.640625 C 6.378906 3.003906 5.082031 3.859375 4.1875 5.203125 C 3.289062 6.546875 2.96875 8.128906 3.21875 9.953125 C 3.363281 10.972656 3.675781 11.882812 4.15625 12.6875 C 4.644531 13.5 5.289062 14.175781 6.09375 14.71875 L 4.8125 16.171875 C 3.820312 15.554688 3.019531 14.726562 2.40625 13.6875 C 1.800781 12.65625 1.410156 11.476562 1.234375 10.15625 C 1.003906 8.445312 1.160156 6.890625 1.703125 5.484375 C 2.242188 4.078125 3.101562 2.921875 4.28125 2.015625 C 5.457031 1.109375 6.859375 0.539062 8.484375 0.3125 C 10.097656 0.09375 11.585938 0.25 12.953125 0.78125 C 14.328125 1.3125 15.457031 2.140625 16.34375 3.265625 C 17.226562 4.398438 17.773438 5.726562 17.984375 7.25 C 18.191406 8.78125 18.019531 10.203125 17.46875 11.515625 C 16.925781 12.835938 16.066406 13.925781 14.890625 14.78125 C 13.722656 15.644531 12.320312 16.1875 10.6875 16.40625 Z M 16.0625 7.515625 C 15.84375 5.921875 15.148438 4.648438 13.984375 3.703125 C 12.816406 2.765625 11.40625 2.335938 9.75 2.421875 L 11.359375 14.15625 C 12.972656 13.78125 14.210938 12.984375 15.078125 11.765625 C 15.953125 10.554688 16.28125 9.140625 16.0625 7.515625 Z M 16.0625 7.515625 "/></g></g></g><g fill="#fff9f3" fill-opacity="1"><g transform="translate(86.934197, 272.878136)"><g><path d="M 17.578125 -17.59375 L 17.578125 0 L 15.734375 0 L 15.734375 -8.125 L 4.71875 -8.125 L 4.71875 0 L 2.859375 0 L 2.859375 -17.59375 L 4.71875 -17.59375 L 4.71875 -9.75 L 15.734375 -9.75 L 15.734375 -17.59375 Z M 17.578125 -17.59375 "/></g></g></g><g fill="#fff9f3" fill-opacity="1"><g transform="translate(109.633065, 272.878136)"><g><path d="M 13.90625 -4.703125 L 4.09375 -4.703125 L 1.984375 0 L 0.046875 0 L 8.09375 -17.59375 L 9.9375 -17.59375 L 17.96875 0 L 16.015625 0 Z M 13.21875 -6.203125 L 9 -15.65625 L 4.78125 -6.203125 Z M 13.21875 -6.203125 "/></g></g></g><g fill="#fff9f3" fill-opacity="1"><g transform="translate(129.918799, 272.878136)"><g><path d="M 17.578125 -17.59375 L 17.578125 0 L 16.046875 0 L 4.71875 -14.28125 L 4.71875 0 L 2.859375 0 L 2.859375 -17.59375 L 4.40625 -17.59375 L 15.734375 -3.3125 L 15.734375 -17.59375 Z M 17.578125 -17.59375 "/></g></g></g><g fill="#fff9f3" fill-opacity="1"><g transform="translate(152.617667, 272.878136)"><g><path d="M 2.859375 -17.59375 L 10.03125 -17.59375 C 11.894531 -17.59375 13.535156 -17.21875 14.953125 -16.46875 C 16.378906 -15.726562 17.484375 -14.691406 18.265625 -13.359375 C 19.054688 -12.023438 19.453125 -10.503906 19.453125 -8.796875 C 19.453125 -7.085938 19.054688 -5.566406 18.265625 -4.234375 C 17.484375 -2.898438 16.378906 -1.859375 14.953125 -1.109375 C 13.535156 -0.367188 11.894531 0 10.03125 0 L 2.859375 0 Z M 9.9375 -1.609375 C 11.476562 -1.609375 12.828125 -1.910156 13.984375 -2.515625 C 15.140625 -3.128906 16.035156 -3.976562 16.671875 -5.0625 C 17.304688 -6.144531 17.625 -7.390625 17.625 -8.796875 C 17.625 -10.203125 17.304688 -11.445312 16.671875 -12.53125 C 16.035156 -13.613281 15.140625 -14.457031 13.984375 -15.0625 C 12.828125 -15.675781 11.476562 -15.984375 9.9375 -15.984375 L 4.71875 -15.984375 L 4.71875 -1.609375 Z M 9.9375 -1.609375 "/></g></g></g><g fill="#fff9f3" fill-opacity="1"><g transform="translate(175.64331, 272.878136)"><g><path d="M 8.90625 -6.078125 L 8.90625 0 L 7.0625 0 L 7.0625 -6.078125 L 0.03125 -17.59375 L 2.015625 -17.59375 L 8.046875 -7.71875 L 14.078125 -17.59375 L 15.9375 -17.59375 Z M 8.90625 -6.078125 "/></g></g></g><g fill="#fff9f3" fill-opacity="1"><g transform="translate(193.86783, 272.878136)"><g><path d="M 4.71875 -15.984375 L 4.71875 -9.078125 L 13.828125 -9.078125 L 13.828125 -7.46875 L 4.71875 -7.46875 L 4.71875 0 L 2.859375 0 L 2.859375 -17.59375 L 14.9375 -17.59375 L 14.9375 -15.984375 Z M 4.71875 -15.984375 "/></g></g></g><g fill="#fff9f3" fill-opacity="1"><g transform="translate(212.042076, 272.878136)"><g><path d="M 10.5625 0.15625 C 8.8125 0.15625 7.226562 -0.234375 5.8125 -1.015625 C 4.40625 -1.796875 3.300781 -2.863281 2.5 -4.21875 C 1.707031 -5.582031 1.3125 -7.109375 1.3125 -8.796875 C 1.3125 -10.492188 1.707031 -12.019531 2.5 -13.375 C 3.300781 -14.726562 4.40625 -15.796875 5.8125 -16.578125 C 7.226562 -17.359375 8.8125 -17.75 10.5625 -17.75 C 12.300781 -17.75 13.867188 -17.363281 15.265625 -16.59375 C 16.671875 -15.820312 17.773438 -14.753906 18.578125 -13.390625 C 19.378906 -12.023438 19.78125 -10.492188 19.78125 -8.796875 C 19.78125 -7.109375 19.378906 -5.578125 18.578125 -4.203125 C 17.773438 -2.835938 16.671875 -1.769531 15.265625 -1 C 13.867188 -0.226562 12.300781 0.15625 10.5625 0.15625 Z M 10.5625 -1.515625 C 11.945312 -1.515625 13.203125 -1.828125 14.328125 -2.453125 C 15.453125 -3.078125 16.332031 -3.945312 16.96875 -5.0625 C 17.601562 -6.175781 17.921875 -7.421875 17.921875 -8.796875 C 17.921875 -10.171875 17.601562 -11.414062 16.96875 -12.53125 C 16.332031 -13.644531 15.453125 -14.515625 14.328125 -15.140625 C 13.203125 -15.773438 11.945312 -16.09375 10.5625 -16.09375 C 9.164062 -16.09375 7.898438 -15.773438 6.765625 -15.140625 C 5.640625 -14.515625 4.753906 -13.644531 4.109375 -12.53125 C 3.460938 -11.414062 3.140625 -10.171875 3.140625 -8.796875 C 3.140625 -7.421875 3.460938 -6.175781 4.109375 -5.0625 C 4.753906 -3.945312 5.640625 -3.078125 6.765625 -2.453125 C 7.898438 -1.828125 9.164062 -1.515625 10.5625 -1.515625 Z M 10.5625 -1.515625 "/></g></g></g><g fill="#fff9f3" fill-opacity="1"><g transform="translate(235.394499, 272.878136)"><g><path d="M 2.859375 -17.59375 L 4.71875 -17.59375 L 4.71875 -1.609375 L 14.578125 -1.609375 L 14.578125 0 L 2.859375 0 Z M 2.859375 -17.59375 "/></g></g></g><g fill="#fff9f3" fill-opacity="1"><g transform="translate(252.46272, 272.878136)"><g><path d="M 8.328125 -8.265625 L 4.71875 -4.625 L 4.71875 0 L 2.859375 0 L 2.859375 -17.59375 L 4.71875 -17.59375 L 4.71875 -6.96875 L 15.0625 -17.59375 L 17.203125 -17.59375 L 9.578125 -9.625 L 17.71875 0 L 15.515625 0 Z M 8.328125 -8.265625 "/></g></g></g><g fill="#fff9f3" fill-opacity="1"><g transform="translate(272.597637, 272.878136)"><g><path d="M 7.71875 0.15625 C 6.40625 0.15625 5.148438 -0.0507812 3.953125 -0.46875 C 2.753906 -0.894531 1.832031 -1.453125 1.1875 -2.140625 L 1.90625 -3.5625 C 2.539062 -2.925781 3.382812 -2.410156 4.4375 -2.015625 C 5.5 -1.628906 6.59375 -1.4375 7.71875 -1.4375 C 9.289062 -1.4375 10.46875 -1.722656 11.25 -2.296875 C 12.039062 -2.878906 12.4375 -3.628906 12.4375 -4.546875 C 12.4375 -5.253906 12.222656 -5.816406 11.796875 -6.234375 C 11.367188 -6.648438 10.84375 -6.972656 10.21875 -7.203125 C 9.601562 -7.429688 8.742188 -7.675781 7.640625 -7.9375 C 6.316406 -8.28125 5.257812 -8.601562 4.46875 -8.90625 C 3.6875 -9.21875 3.015625 -9.691406 2.453125 -10.328125 C 1.890625 -10.960938 1.609375 -11.828125 1.609375 -12.921875 C 1.609375 -13.804688 1.84375 -14.613281 2.3125 -15.34375 C 2.78125 -16.070312 3.5 -16.65625 4.46875 -17.09375 C 5.445312 -17.53125 6.65625 -17.75 8.09375 -17.75 C 9.101562 -17.75 10.085938 -17.609375 11.046875 -17.328125 C 12.015625 -17.054688 12.847656 -16.675781 13.546875 -16.1875 L 12.921875 -14.703125 C 12.179688 -15.191406 11.390625 -15.554688 10.546875 -15.796875 C 9.710938 -16.046875 8.894531 -16.171875 8.09375 -16.171875 C 6.550781 -16.171875 5.390625 -15.867188 4.609375 -15.265625 C 3.828125 -14.671875 3.4375 -13.90625 3.4375 -12.96875 C 3.4375 -12.269531 3.648438 -11.707031 4.078125 -11.28125 C 4.503906 -10.851562 5.039062 -10.523438 5.6875 -10.296875 C 6.332031 -10.066406 7.203125 -9.816406 8.296875 -9.546875 C 9.585938 -9.234375 10.628906 -8.921875 11.421875 -8.609375 C 12.222656 -8.296875 12.898438 -7.828125 13.453125 -7.203125 C 14.003906 -6.578125 14.28125 -5.726562 14.28125 -4.65625 C 14.28125 -3.757812 14.039062 -2.945312 13.5625 -2.21875 C 13.082031 -1.488281 12.347656 -0.910156 11.359375 -0.484375 C 10.367188 -0.0546875 9.15625 0.15625 7.71875 0.15625 Z M 7.71875 0.15625 "/></g></g></g><g clip-path="url(#519b6c6156)"><path fill="#ab8742" d="M 249.691406 110.246094 L 249.691406 138.960938 C 249.691406 140.132812 249.050781 141.230469 248.027344 141.804688 L 214.332031 160.644531 L 214.332031 166.332031 L 207.832031 166.332031 L 207.832031 158.730469 C 207.832031 157.558594 208.476562 156.460938 209.5 155.886719 L 243.195312 137.046875 L 243.195312 106.972656 L 246.457031 106.972656 C 248.242188 106.972656 249.691406 108.429688 249.691406 110.246094 " fill-opacity="1" fill-rule="nonzero"/></g><g clip-path="url(#f395ca4c4e)"><path fill="#ab8742" d="M 240.503906 114.703125 C 240.503906 119.023438 238.273438 122.53125 235.515625 122.53125 L 186.871094 122.53125 C 184.113281 122.53125 181.878906 119.023438 181.878906 114.703125 L 181.878906 105.785156 C 181.878906 101.457031 184.113281 97.957031 186.871094 97.957031 L 235.515625 97.957031 C 238.273438 97.957031 240.503906 101.457031 240.503906 105.785156 L 240.503906 114.703125 " fill-opacity="1" fill-rule="nonzero"/></g><path fill="#ab8742" d="M 220.539062 174.367188 L 218.613281 174.367188 L 221.015625 224.355469 C 221.015625 229.878906 216.59375 234.347656 211.070312 234.347656 C 208.335938 234.347656 205.835938 233.226562 204.050781 231.433594 C 202.242188 229.617188 201.148438 227.128906 201.148438 224.355469 L 203.789062 174.367188 L 201.625 174.367188 C 200.386719 174.367188 199.410156 173.363281 199.410156 172.144531 C 199.410156 170.921875 200.386719 169.917969 201.625 169.917969 L 220.539062 169.917969 C 221.78125 169.917969 222.753906 170.921875 222.753906 172.144531 C 222.753906 173.363281 221.78125 174.367188 220.539062 174.367188 " fill-opacity="1" fill-rule="nonzero"/><path fill="#ab8742" d="M 172.832031 132.546875 L 172.832031 133.683594 L 135.285156 133.683594 L 135.285156 132.546875 L 172.832031 132.546875 " fill-opacity="1" fill-rule="nonzero"/><path fill="#ab8742" d="M 172.832031 136.121094 L 172.832031 139.050781 L 135.285156 139.050781 L 135.285156 136.121094 L 172.832031 136.121094 " fill-opacity="1" fill-rule="nonzero"/><path fill="#ab8742" d="M 135.285156 141.511719 L 172.835938 141.511719 L 172.835938 142.839844 L 135.285156 142.839844 L 135.285156 141.511719 " fill-opacity="1" fill-rule="nonzero"/><g clip-path="url(#f0c10b9a17)"><path fill="#ab8742" d="M 172.84375 145.777344 L 172.84375 151.863281 C 172.84375 152.867188 172.753906 153.875 172.613281 154.851562 C 172.554688 155.222656 172.46875 155.597656 172.382812 155.945312 C 171.804688 158.617188 170.660156 161.054688 169.082031 163.148438 C 168.707031 163.585938 168.363281 164.011719 167.988281 164.417969 C 167.960938 164.472656 167.902344 164.5 167.871094 164.5625 C 164.375 169.121094 163.109375 172.515625 162.738281 175.417969 C 162.648438 176.078125 162.589844 176.679688 162.589844 177.28125 C 162.53125 178.859375 162.707031 180.328125 162.820312 181.847656 C 162.847656 182.308594 162.878906 182.769531 162.90625 183.230469 L 165.058594 223.921875 C 165.058594 226.96875 163.828125 229.726562 161.84375 231.707031 C 159.863281 233.6875 157.105469 234.929688 154.0625 234.929688 C 147.976562 234.929688 143.066406 230.015625 143.066406 223.921875 L 145.21875 183.230469 C 145.246094 182.769531 145.277344 182.308594 145.308594 181.847656 C 145.421875 180.328125 145.589844 178.859375 145.535156 177.28125 C 145.535156 176.679688 145.476562 176.078125 145.394531 175.417969 C 145.015625 172.515625 143.753906 169.121094 140.253906 164.5625 C 140.195312 164.53125 140.136719 164.472656 140.136719 164.417969 C 139.765625 164.011719 139.417969 163.585938 139.046875 163.148438 C 137.464844 161.054688 136.320312 158.585938 135.746094 155.945312 C 135.65625 155.597656 135.570312 155.222656 135.515625 154.851562 C 135.371094 153.875 135.285156 152.898438 135.285156 151.863281 L 135.285156 145.777344 L 172.84375 145.777344 " fill-opacity="1" fill-rule="nonzero"/></g><g clip-path="url(#146cd17596)"><path fill="#ab8742" d="M 174.457031 97.613281 L 172.832031 129.554688 L 135.277344 129.554688 L 133.007812 97.613281 C 133.007812 97.613281 136.234375 110.078125 136.234375 109.507812 C 136.234375 108.914062 136.234375 97.613281 136.234375 97.613281 L 138.191406 113.589844 L 138.191406 97.613281 L 139.636719 101.382812 L 139.636719 97.613281 L 145.027344 97.613281 L 146.652344 101.921875 L 147.347656 97.613281 L 150.238281 112.683594 L 150.238281 97.613281 L 151.835938 99.214844 L 152.5625 97.613281 L 156.503906 97.613281 L 157.769531 108.371094 L 158.488281 97.613281 L 161.097656 97.613281 L 162.152344 101.742188 L 162.695312 97.613281 L 163.238281 102.183594 L 164.136719 97.613281 L 165.042969 103.082031 L 165.585938 97.613281 L 168.628906 97.613281 L 169.351562 101.382812 L 169.96875 97.613281 L 170.949219 105.765625 L 171.671875 97.613281 L 172.394531 99.753906 L 173.195312 97.613281 L 174.457031 97.613281 " fill-opacity="1" fill-rule="nonzero"/></g><g clip-path="url(#e4f23a06d2)"><g clip-path="url(#e3babbc3e1)"><path fill="#ab8742" d="M 36.785156 188.457031 L 124.3125 188.457031 L 124.3125 235.585938 L 36.785156 235.585938 Z M 36.785156 188.457031 " fill-opacity="1" fill-rule="nonzero"/></g></g><g clip-path="url(#d52058bfec)"><g clip-path="url(#506ee26510)"><path fill="#ab8742" d="M 338.210938 235.894531 L 250.683594 235.894531 L 250.683594 188.761719 L 338.210938 188.761719 Z M 338.210938 235.894531 " fill-opacity="1" fill-rule="nonzero"/></g></g><g fill="#fff9f3" fill-opacity="1"><g transform="translate(60.444939, 213.458686)"><g><path d="M 10.5625 -4.5625 L 2.21875 -4.5625 C 2.289062 -3.53125 2.6875 -2.691406 3.40625 -2.046875 C 4.125 -1.410156 5.035156 -1.09375 6.140625 -1.09375 C 6.753906 -1.09375 7.320312 -1.203125 7.84375 -1.421875 C 8.363281 -1.648438 8.8125 -1.976562 9.1875 -2.40625 L 9.953125 -1.53125 C 9.503906 -1 8.945312 -0.59375 8.28125 -0.3125 C 7.625 -0.0390625 6.898438 0.09375 6.109375 0.09375 C 5.078125 0.09375 4.164062 -0.125 3.375 -0.5625 C 2.59375 -1 1.976562 -1.601562 1.53125 -2.375 C 1.09375 -3.144531 0.875 -4.015625 0.875 -4.984375 C 0.875 -5.953125 1.082031 -6.820312 1.5 -7.59375 C 1.925781 -8.363281 2.507812 -8.960938 3.25 -9.390625 C 3.988281 -9.828125 4.820312 -10.046875 5.75 -10.046875 C 6.664062 -10.046875 7.488281 -9.828125 8.21875 -9.390625 C 8.957031 -8.960938 9.535156 -8.367188 9.953125 -7.609375 C 10.367188 -6.847656 10.578125 -5.972656 10.578125 -4.984375 Z M 5.75 -8.890625 C 4.78125 -8.890625 3.96875 -8.582031 3.3125 -7.96875 C 2.664062 -7.351562 2.300781 -6.554688 2.21875 -5.578125 L 9.28125 -5.578125 C 9.195312 -6.554688 8.828125 -7.351562 8.171875 -7.96875 C 7.523438 -8.582031 6.71875 -8.890625 5.75 -8.890625 Z M 5.75 -8.890625 "/></g></g></g><g fill="#fff9f3" fill-opacity="1"><g transform="translate(71.8903, 213.458686)"><g><path d="M 4.546875 0.09375 C 3.734375 0.09375 2.957031 -0.0195312 2.21875 -0.25 C 1.488281 -0.488281 0.914062 -0.785156 0.5 -1.140625 L 1.09375 -2.203125 C 1.507812 -1.867188 2.035156 -1.597656 2.671875 -1.390625 C 3.304688 -1.179688 3.960938 -1.078125 4.640625 -1.078125 C 5.554688 -1.078125 6.226562 -1.21875 6.65625 -1.5 C 7.09375 -1.789062 7.3125 -2.191406 7.3125 -2.703125 C 7.3125 -3.078125 7.191406 -3.367188 6.953125 -3.578125 C 6.710938 -3.785156 6.410156 -3.941406 6.046875 -4.046875 C 5.679688 -4.148438 5.195312 -4.253906 4.59375 -4.359375 C 3.78125 -4.515625 3.125 -4.671875 2.625 -4.828125 C 2.132812 -4.984375 1.71875 -5.25 1.375 -5.625 C 1.03125 -6.007812 0.859375 -6.535156 0.859375 -7.203125 C 0.859375 -8.035156 1.203125 -8.71875 1.890625 -9.25 C 2.585938 -9.78125 3.554688 -10.046875 4.796875 -10.046875 C 5.441406 -10.046875 6.082031 -9.957031 6.71875 -9.78125 C 7.363281 -9.613281 7.898438 -9.390625 8.328125 -9.109375 L 7.734375 -8.03125 C 6.910156 -8.601562 5.929688 -8.890625 4.796875 -8.890625 C 3.929688 -8.890625 3.28125 -8.738281 2.84375 -8.4375 C 2.414062 -8.132812 2.203125 -7.734375 2.203125 -7.234375 C 2.203125 -6.859375 2.320312 -6.554688 2.5625 -6.328125 C 2.8125 -6.097656 3.117188 -5.929688 3.484375 -5.828125 C 3.847656 -5.722656 4.351562 -5.613281 5 -5.5 C 5.800781 -5.34375 6.441406 -5.1875 6.921875 -5.03125 C 7.398438 -4.882812 7.804688 -4.628906 8.140625 -4.265625 C 8.484375 -3.898438 8.65625 -3.394531 8.65625 -2.75 C 8.65625 -1.875 8.289062 -1.179688 7.5625 -0.671875 C 6.84375 -0.160156 5.835938 0.09375 4.546875 0.09375 Z M 4.546875 0.09375 "/></g></g></g><g fill="#fff9f3" fill-opacity="1"><g transform="translate(81.156489, 213.458686)"><g><path d="M 7.125 -0.609375 C 6.875 -0.378906 6.5625 -0.203125 6.1875 -0.078125 C 5.8125 0.0351562 5.421875 0.09375 5.015625 0.09375 C 4.085938 0.09375 3.367188 -0.15625 2.859375 -0.65625 C 2.359375 -1.164062 2.109375 -1.882812 2.109375 -2.8125 L 2.109375 -8.828125 L 0.328125 -8.828125 L 0.328125 -9.96875 L 2.109375 -9.96875 L 2.109375 -12.15625 L 3.453125 -12.15625 L 3.453125 -9.96875 L 6.484375 -9.96875 L 6.484375 -8.828125 L 3.453125 -8.828125 L 3.453125 -2.875 C 3.453125 -2.28125 3.597656 -1.828125 3.890625 -1.515625 C 4.191406 -1.210938 4.617188 -1.0625 5.171875 -1.0625 C 5.453125 -1.0625 5.722656 -1.101562 5.984375 -1.1875 C 6.242188 -1.28125 6.46875 -1.410156 6.65625 -1.578125 Z M 7.125 -0.609375 "/></g></g></g><g fill="#fff9f3" fill-opacity="1"><g transform="translate(281.380915, 210.750675)"><g><path d="M 8.5 -1.03125 L 8.5 0 L 0.625 0 L 0.625 -0.8125 L 5.296875 -5.390625 C 5.878906 -5.960938 6.273438 -6.457031 6.484375 -6.875 C 6.691406 -7.300781 6.796875 -7.726562 6.796875 -8.15625 C 6.796875 -8.820312 6.566406 -9.335938 6.109375 -9.703125 C 5.660156 -10.078125 5.015625 -10.265625 4.171875 -10.265625 C 2.859375 -10.265625 1.835938 -9.847656 1.109375 -9.015625 L 0.28125 -9.71875 C 0.726562 -10.226562 1.289062 -10.617188 1.96875 -10.890625 C 2.644531 -11.171875 3.410156 -11.3125 4.265625 -11.3125 C 5.410156 -11.3125 6.316406 -11.039062 6.984375 -10.5 C 7.648438 -9.96875 7.984375 -9.226562 7.984375 -8.28125 C 7.984375 -7.707031 7.851562 -7.148438 7.59375 -6.609375 C 7.34375 -6.078125 6.859375 -5.46875 6.140625 -4.78125 L 2.328125 -1.03125 Z M 8.5 -1.03125 "/></g></g></g><g fill="#fff9f3" fill-opacity="1"><g transform="translate(290.807397, 210.750675)"><g><path d="M 5.3125 0.09375 C 4.445312 0.09375 3.671875 -0.132812 2.984375 -0.59375 C 2.304688 -1.050781 1.773438 -1.707031 1.390625 -2.5625 C 1.015625 -3.425781 0.828125 -4.441406 0.828125 -5.609375 C 0.828125 -6.773438 1.015625 -7.785156 1.390625 -8.640625 C 1.773438 -9.503906 2.304688 -10.164062 2.984375 -10.625 C 3.671875 -11.082031 4.445312 -11.3125 5.3125 -11.3125 C 6.175781 -11.3125 6.945312 -11.082031 7.625 -10.625 C 8.300781 -10.164062 8.832031 -9.503906 9.21875 -8.640625 C 9.601562 -7.785156 9.796875 -6.773438 9.796875 -5.609375 C 9.796875 -4.441406 9.601562 -3.425781 9.21875 -2.5625 C 8.832031 -1.707031 8.300781 -1.050781 7.625 -0.59375 C 6.945312 -0.132812 6.175781 0.09375 5.3125 0.09375 Z M 5.3125 -0.96875 C 5.957031 -0.96875 6.53125 -1.144531 7.03125 -1.5 C 7.53125 -1.863281 7.914062 -2.394531 8.1875 -3.09375 C 8.46875 -3.789062 8.609375 -4.628906 8.609375 -5.609375 C 8.609375 -6.585938 8.46875 -7.425781 8.1875 -8.125 C 7.914062 -8.820312 7.53125 -9.351562 7.03125 -9.71875 C 6.53125 -10.082031 5.957031 -10.265625 5.3125 -10.265625 C 4.65625 -10.265625 4.078125 -10.082031 3.578125 -9.71875 C 3.085938 -9.351562 2.703125 -8.820312 2.421875 -8.125 C 2.140625 -7.425781 2 -6.585938 2 -5.609375 C 2 -4.628906 2.140625 -3.789062 2.421875 -3.09375 C 2.703125 -2.394531 3.085938 -1.863281 3.578125 -1.5 C 4.078125 -1.144531 4.65625 -0.96875 5.3125 -0.96875 Z M 5.3125 -0.96875 "/></g></g></g><g fill="#fff9f3" fill-opacity="1"><g transform="translate(301.740815, 210.750675)"><g><path d="M 8.5 -1.03125 L 8.5 0 L 0.625 0 L 0.625 -0.8125 L 5.296875 -5.390625 C 5.878906 -5.960938 6.273438 -6.457031 6.484375 -6.875 C 6.691406 -7.300781 6.796875 -7.726562 6.796875 -8.15625 C 6.796875 -8.820312 6.566406 -9.335938 6.109375 -9.703125 C 5.660156 -10.078125 5.015625 -10.265625 4.171875 -10.265625 C 2.859375 -10.265625 1.835938 -9.847656 1.109375 -9.015625 L 0.28125 -9.71875 C 0.726562 -10.226562 1.289062 -10.617188 1.96875 -10.890625 C 2.644531 -11.171875 3.410156 -11.3125 4.265625 -11.3125 C 5.410156 -11.3125 6.316406 -11.039062 6.984375 -10.5 C 7.648438 -9.96875 7.984375 -9.226562 7.984375 -8.28125 C 7.984375 -7.707031 7.851562 -7.148438 7.59375 -6.609375 C 7.34375 -6.078125 6.859375 -5.46875 6.140625 -4.78125 L 2.328125 -1.03125 Z M 8.5 -1.03125 "/></g></g></g><g fill="#fff9f3" fill-opacity="1"><g transform="translate(311.167297, 210.750675)"><g><path d="M 4.65625 -6.40625 C 5.820312 -6.34375 6.710938 -6.023438 7.328125 -5.453125 C 7.941406 -4.878906 8.25 -4.132812 8.25 -3.21875 C 8.25 -2.582031 8.09375 -2.015625 7.78125 -1.515625 C 7.476562 -1.015625 7.019531 -0.617188 6.40625 -0.328125 C 5.800781 -0.046875 5.0625 0.09375 4.1875 0.09375 C 3.375 0.09375 2.601562 -0.0351562 1.875 -0.296875 C 1.15625 -0.554688 0.578125 -0.90625 0.140625 -1.34375 L 0.703125 -2.265625 C 1.078125 -1.878906 1.570312 -1.566406 2.1875 -1.328125 C 2.8125 -1.085938 3.476562 -0.96875 4.1875 -0.96875 C 5.101562 -0.96875 5.8125 -1.164062 6.3125 -1.5625 C 6.8125 -1.96875 7.0625 -2.519531 7.0625 -3.21875 C 7.0625 -3.914062 6.8125 -4.460938 6.3125 -4.859375 C 5.8125 -5.253906 5.054688 -5.453125 4.046875 -5.453125 L 3.234375 -5.453125 L 3.234375 -6.296875 L 6.34375 -10.203125 L 0.609375 -10.203125 L 0.609375 -11.21875 L 7.828125 -11.21875 L 7.828125 -10.40625 Z M 4.65625 -6.40625 "/></g></g></g><path stroke-linecap="round" transform="matrix(0.751021, -0.00608969, 0.00608122, 0.749975, 94.992949, 278.614141)" fill="none" stroke-linejoin="miter" d="M 2.000883 1.999541 L 244.660267 2.001086 " stroke="#ab8742" stroke-width="4" stroke-opacity="1" stroke-miterlimit="4"/></svg>